<svg width="470" height="427" viewBox="0 0 470 427" fill="none" xmlns="http://www.w3.org/2000/svg">
<path d="M230.577 292.983C230.987 285.134 245.376 279.496 262.709 280.421C280.042 281.346 293.763 288.441 293.35 296.303C292.937 304.165 278.552 309.791 261.218 308.866C243.884 307.941 230.168 300.845 230.577 292.983Z" fill="black"/>
<path d="M258.663 371.884H258.6C258.495 371.876 258.392 371.847 258.298 371.799C258.204 371.752 258.12 371.686 258.052 371.605C257.983 371.525 257.931 371.432 257.899 371.332C257.866 371.231 257.854 371.125 257.863 371.02L262.477 311.185C262.5 310.976 262.602 310.784 262.761 310.647C262.921 310.51 263.126 310.438 263.336 310.446C263.441 310.454 263.543 310.483 263.637 310.53C263.731 310.578 263.815 310.644 263.883 310.724C263.951 310.804 264.003 310.897 264.036 310.997C264.068 311.097 264.08 311.203 264.072 311.308L259.463 371.146C259.448 371.348 259.357 371.536 259.209 371.674C259.06 371.811 258.865 371.887 258.663 371.887" fill="black"/>
<path d="M237.615 374.868C237.893 369.582 247.563 365.798 259.216 366.406C270.869 367.014 280.088 371.806 279.809 377.092C279.53 382.378 269.864 386.15 258.209 385.542C246.554 384.934 237.339 380.142 237.615 374.868Z" fill="black"/>
<path d="M182.494 184.521C182.448 184.678 174.984 197.258 177.56 197.741C186.934 199.492 196.375 200.905 205.83 202.152C206.741 202.273 208.342 202.719 208.568 201.838C212.787 185.185 219.074 156.572 218.809 156.258C215.246 152.052 212.65 147.952 208.899 149.992C196.48 156.717 186.172 172.267 182.494 184.521Z" fill="white"/>
<path d="M207.551 203.167C207.091 203.155 206.632 203.104 206.18 203.016L206.092 203.002C205.961 202.98 205.837 202.96 205.725 202.945C195.068 201.542 185.807 200.098 177.413 198.53C177.192 198.492 176.984 198.4 176.806 198.262C176.629 198.125 176.488 197.946 176.395 197.742C175.913 196.702 176.062 194.272 181.538 184.59L181.651 184.39L181.751 184.22C182.777 180.904 184.095 177.687 185.69 174.604C187.441 171.175 189.462 167.891 191.734 164.782C196.797 157.842 202.602 152.488 208.518 149.285C209.229 148.879 210.03 148.658 210.848 148.642C213.576 148.642 215.789 151.334 218.131 154.184C218.502 154.636 218.963 155.197 219.422 155.739C219.747 156.125 219.896 156.302 216.154 173.095C213.758 183.849 211.218 194.666 209.347 202.031C209.151 202.795 208.563 203.167 207.551 203.167ZM210.845 150.26C210.296 150.27 209.759 150.42 209.284 150.696C196.899 157.402 186.818 172.904 183.263 184.75C183.18 184.972 183.07 185.183 182.936 185.379C177.88 194.32 177.747 196.515 177.827 196.974C186.153 198.527 195.348 199.959 205.936 201.352C206.093 201.373 206.268 201.402 206.449 201.433C206.824 201.505 207.203 201.551 207.584 201.569C207.661 201.571 207.737 201.564 207.812 201.548C211.895 185.424 217.578 159.56 217.991 156.533C217.647 156.124 217.308 155.713 216.981 155.315L216.892 155.207C214.365 152.13 212.692 150.262 210.845 150.262V150.26Z" fill="black"/>
<path d="M145.19 370.122C152.49 369.58 164.127 372.537 164.127 372.537C164.127 372.537 169.454 350.648 171.601 333.011C172.86 321.432 172.894 309.753 171.701 298.167L213.08 277.172C213.08 277.172 274.002 255.765 254.313 233.888C234.624 212.011 142.566 265.774 139.68 275.022C136.749 284.416 143.38 351.047 145.19 370.122Z" fill="white"/>
<path d="M164.127 373.34C164.06 373.34 163.992 373.332 163.927 373.315C163.527 373.215 154.047 370.861 147.097 370.861C146.44 370.861 145.818 370.882 145.248 370.924H145.218C145.013 370.931 144.814 370.86 144.66 370.725C144.506 370.59 144.409 370.402 144.389 370.198L143.989 366.022C140.327 327.71 136.433 282.717 138.913 274.783C141.269 267.233 191.77 236.95 225.425 229.596C229.941 228.545 234.557 227.975 239.193 227.896C242.355 227.833 245.505 228.295 248.516 229.261C250.96 230.058 253.16 231.466 254.908 233.352C258.508 237.352 259.763 241.639 258.626 246.086C257.99 248.372 256.922 250.514 255.48 252.398C253.848 254.556 251.984 256.529 249.921 258.279C245.303 262.136 240.285 265.489 234.954 268.279C227.99 272.006 220.769 275.231 213.346 277.93L172.555 298.63C173.682 310.097 173.629 321.65 172.398 333.106C170.263 350.646 164.959 372.516 164.907 372.725C164.864 372.9 164.764 373.055 164.623 373.166C164.481 373.277 164.307 373.338 164.127 373.338V373.34ZM147.127 369.252C150.338 369.306 153.539 369.619 156.699 370.187C159.712 370.687 162.275 371.267 163.534 371.565C164.414 367.855 168.901 348.556 170.805 332.913C172.046 321.398 172.079 309.784 170.905 298.262C170.885 298.099 170.916 297.933 170.994 297.788C171.071 297.643 171.192 297.525 171.339 297.451L212.715 276.456L212.764 276.438C220.043 273.753 227.131 270.575 233.978 266.926C239.183 264.216 244.095 260.975 248.633 257.255C250.636 255.587 252.452 253.706 254.047 251.644C255.437 249.876 256.465 247.853 257.074 245.688C258.074 241.795 256.94 238.005 253.719 234.425C252.12 232.709 250.105 231.435 247.869 230.725C245.076 229.848 242.16 229.431 239.233 229.49C234.699 229.57 230.185 230.13 225.769 231.161C191.618 238.628 142.414 268.961 140.447 275.261C137.747 283.904 143.447 343.45 145.591 365.866L145.916 369.274C146.312 369.26 146.72 369.252 147.127 369.252Z" fill="black"/>
<path d="M193.006 370.099C200.306 369.556 211.943 372.514 211.943 372.514C211.943 372.514 217.27 350.625 219.417 332.986C220.677 321.408 220.711 309.728 219.517 298.143L260.901 277.143C260.901 277.143 286.681 252.333 266.991 230.468C247.301 208.603 190.383 265.738 187.497 274.986C184.565 284.379 191.197 351.023 193.006 370.099Z" fill="white"/>
<path d="M211.943 373.315C211.875 373.315 211.808 373.306 211.743 373.289H211.735C211.466 373.222 209.016 372.617 205.816 372.031C202.224 371.318 198.577 370.917 194.916 370.831C194.258 370.831 193.635 370.852 193.065 370.895H193.016C192.815 370.895 192.621 370.821 192.472 370.686C192.322 370.552 192.228 370.368 192.206 370.168L191.806 365.978C188.143 327.671 184.25 282.677 186.73 274.746C189.188 266.873 225.002 230.698 249.22 225.406C251.175 224.964 253.172 224.732 255.176 224.715C257.557 224.683 259.92 225.127 262.127 226.022C264.213 226.905 266.076 228.242 267.582 229.935C269.859 232.419 271.712 235.261 273.065 238.348C274.204 241.007 274.889 243.84 275.089 246.726C275.352 252.002 274.329 257.262 272.109 262.055C271.151 264.228 270.038 266.33 268.777 268.343C267.715 270.045 266.565 271.69 265.332 273.272C264.133 274.837 262.836 276.324 261.45 277.726C261.393 277.781 261.327 277.827 261.256 277.862L220.371 298.608C221.498 310.075 221.446 321.627 220.214 333.083C218.086 350.572 212.776 372.49 212.723 372.704C212.68 372.879 212.58 373.034 212.439 373.145C212.297 373.256 212.123 373.317 211.943 373.317V373.315ZM194.95 369.228C201.134 369.228 209.068 370.999 211.35 371.541C212.23 367.831 216.717 348.532 218.621 332.888C219.864 321.373 219.898 309.76 218.721 298.238C218.701 298.075 218.732 297.909 218.81 297.764C218.887 297.619 219.008 297.501 219.155 297.427L260.423 276.488C261.857 275.023 263.199 273.471 264.441 271.84C266.893 268.696 268.964 265.272 270.61 261.64C275.734 250.112 274.31 239.806 266.391 231.008C265.034 229.484 263.352 228.285 261.469 227.498C259.459 226.694 257.31 226.295 255.145 226.326C253.267 226.343 251.397 226.56 249.565 226.974C224.714 232.405 190.291 268.727 188.264 275.226C185.564 283.86 191.259 343.373 193.401 365.777L193.406 365.83L193.732 369.254C194.129 369.237 194.538 369.228 194.95 369.228Z" fill="black"/>
<path d="M167.154 367.684L164.335 389.684L141.211 390.08L143.171 367.201L167.154 367.684Z" fill="black"/>
<path d="M214.97 367.648L212.151 389.657L189.027 390.057L190.987 367.166L214.97 367.648Z" fill="black"/>
<path d="M153.847 386.796C153.847 386.796 153.476 378.621 148.445 378.776C143.209 378.946 141.11 384.548 139.745 387.856C135.907 397.187 133.445 404.288 126.634 411.35C118.159 420.142 122.18 425.684 128.295 426.831C134.41 427.978 134.984 422.823 138.546 422.871C140.491 423.063 142.452 422.733 144.228 421.917C146.433 420.733 146.086 418.283 148.241 417.353C149.563 416.786 153.493 417.244 153.984 416.617C154.996 415.3 155.24 414.263 156.34 412.838C157.651 411.138 163.152 411.594 164.201 409.738C165.567 407.323 165.377 383.286 165.162 383.032C164.714 382.522 153.847 386.796 153.847 386.796Z" fill="#FFBE00"/>
<path d="M201.662 386.771C201.662 386.771 201.293 378.587 196.262 378.752C191.025 378.909 188.926 384.511 187.562 387.819C183.724 397.153 181.262 404.263 174.451 411.327C165.976 420.117 169.996 425.647 176.111 426.806C182.226 427.965 182.8 422.786 186.362 422.834C188.306 423.031 190.267 422.706 192.044 421.893C194.249 420.709 193.902 418.258 196.057 417.329C197.379 416.762 201.309 417.22 201.8 416.579C202.812 415.264 203.056 414.237 204.156 412.812C205.467 411.112 210.968 411.556 212.019 409.712C213.384 407.297 213.195 383.248 212.979 383.006C212.533 382.499 201.666 386.773 201.666 386.773" fill="#FFBE00"/>
<path d="M131.046 421.886C130.859 421.89 130.677 421.828 130.53 421.712C130.384 421.595 130.283 421.431 130.246 421.248C130.208 421.065 130.235 420.874 130.323 420.709C130.412 420.544 130.555 420.415 130.728 420.345C143.174 415.012 164.117 401.966 164.328 401.834C164.509 401.721 164.727 401.685 164.934 401.733C165.142 401.781 165.322 401.91 165.435 402.09C165.547 402.271 165.584 402.489 165.535 402.697C165.487 402.904 165.359 403.084 165.178 403.197C164.967 403.327 143.918 416.439 131.366 421.821C131.266 421.863 131.159 421.885 131.05 421.886" fill="white"/>
<path d="M178.862 421.863C178.675 421.867 178.493 421.805 178.346 421.689C178.2 421.572 178.099 421.408 178.062 421.225C178.024 421.042 178.051 420.851 178.139 420.686C178.228 420.521 178.371 420.392 178.544 420.322C190.99 414.989 211.933 401.942 212.144 401.81C212.325 401.697 212.543 401.661 212.75 401.709C212.958 401.757 213.138 401.886 213.251 402.066C213.363 402.247 213.4 402.465 213.351 402.673C213.303 402.88 213.175 403.06 212.994 403.173C212.783 403.303 191.734 416.414 179.182 421.797C179.082 421.839 178.975 421.861 178.866 421.862" fill="white"/>
<path d="M247.154 103.739C250.975 106.045 253.439 81.911 247.833 94.129C247.236 95.421 246.276 96.657 246.176 98.089C246.042 99.997 245.514 102.749 247.154 103.739Z" fill="#FDFDFD"/>
<path d="M230.28 96.326C249.502 80.74 250.865 100.745 258.781 110.5C266.697 120.255 259.242 131.218 261.935 135.359C252.275 134.598 221.645 136.687 221.645 136.687C221.645 136.687 215.045 112.787 237.193 104.862" fill="black"/>
<path d="M227.139 142.362C229.455 137.629 229.839 134.828 230.62 131.146C232.32 123.129 234.405 114.594 234.405 114.594L244.29 111.262C245.777 125.194 244.09 124.699 250.635 141.517C252.41 146.081 272.323 147.01 284.397 159.904C296.471 172.798 298.814 191.704 298.928 193.104C301.498 224.458 225.194 206.747 225.194 206.747L210.129 151.514C210.129 151.514 224.829 147.083 227.139 142.362Z" fill="white"/>
<path d="M266.34 212.569C261.931 212.569 257.087 212.319 251.94 211.826C247.784 211.426 243.416 210.87 238.957 210.168C231.174 208.943 225.616 207.668 225.008 207.53C224.867 207.497 224.737 207.426 224.633 207.325C224.529 207.225 224.453 207.098 224.415 206.958L209.354 151.724C209.298 151.522 209.324 151.307 209.426 151.124C209.527 150.941 209.696 150.805 209.897 150.745C213.891 149.545 224.646 145.622 226.418 142.009C227.931 138.948 228.988 135.683 229.558 132.317L229.834 130.98C231.381 123.694 233.255 115.928 233.615 114.445L233.625 114.404C233.657 114.272 233.722 114.151 233.813 114.051C233.905 113.952 234.021 113.877 234.149 113.834L244.034 110.5C244.116 110.472 244.202 110.458 244.288 110.458C244.487 110.457 244.679 110.53 244.827 110.663C244.974 110.795 245.068 110.978 245.088 111.176C245.438 114.455 245.617 116.992 245.76 119.031V119.057C246.228 125.719 246.422 128.476 251.381 141.222C251.959 142.708 255.746 144.005 260.132 145.506H260.137C267.525 148.039 277.625 151.499 284.982 159.358C288.031 162.662 290.621 166.362 292.682 170.358C294.493 173.848 295.988 177.494 297.148 181.251C298.379 185.09 299.242 189.038 299.725 193.041C300.151 198.241 298.51 202.477 294.846 205.641C289.525 210.238 279.931 212.569 266.34 212.569ZM243.596 112.344L235.081 115.214C234.733 116.653 232.916 124.196 231.405 131.314L231.131 132.64C230.537 136.139 229.436 139.532 227.861 142.712C227.102 144.004 226.041 145.093 224.769 145.885C223.206 146.946 221.555 147.874 219.836 148.658C216.997 149.963 214.082 151.095 211.107 152.049L225.841 206.07C227.404 206.415 233.094 207.631 240.679 208.761C249.236 210.106 257.879 210.826 266.541 210.915C279.641 210.915 288.806 208.731 293.795 204.425C297.095 201.577 298.51 197.896 298.123 193.172C297.078 185.458 294.735 177.977 291.193 171.046C289.22 167.198 286.735 163.635 283.807 160.454C276.726 152.892 266.844 149.507 259.627 147.035H259.614C254.265 145.205 250.732 143.996 249.882 141.813C244.833 128.837 244.635 126.013 244.155 119.176C244.023 117.286 243.873 115.143 243.591 112.348L243.596 112.344Z" fill="black"/>
<path d="M199.272 154.52C190.768 160.81 184.507 172.485 184.507 172.485L208.865 176.698L206.865 191.898L212.232 203.79C212.232 203.79 216.764 246.505 218.032 246.396C219.056 246.296 270.744 245.551 270.744 245.551L273.944 209.416L272.557 181.033L297.711 175.333C297.711 175.333 294.374 161.993 283.777 154.882C273.18 147.771 256.991 140.503 256.192 142.652C255.393 144.801 244.107 175.539 242.477 175.081C242.345 175.045 222.406 175.881 222.406 175.881C222.406 175.881 220.797 149.063 218.523 147.348C216.586 145.875 207.777 148.229 199.272 154.519" fill="#FFD2E1"/>
<path d="M225.336 121.427C222.573 123.021 220.502 118.795 222.853 117.262C223.136 117.085 223.458 116.978 223.791 116.951C224.124 116.923 224.459 116.976 224.767 117.105" fill="white"/>
<path d="M224.13 122.582C223.609 122.569 223.101 122.423 222.652 122.158C222.204 121.893 221.831 121.518 221.568 121.068C221.088 120.361 220.907 119.493 221.065 118.654C221.224 117.814 221.709 117.072 222.414 116.589C222.805 116.339 223.252 116.188 223.714 116.148C224.177 116.108 224.643 116.181 225.071 116.361C225.169 116.401 225.257 116.459 225.332 116.534C225.407 116.608 225.467 116.696 225.508 116.793C225.549 116.891 225.57 116.995 225.571 117.1C225.571 117.206 225.551 117.31 225.511 117.408C225.471 117.506 225.412 117.594 225.338 117.669C225.264 117.744 225.176 117.804 225.079 117.845C224.981 117.886 224.877 117.907 224.772 117.907C224.666 117.908 224.562 117.888 224.464 117.848C224.275 117.769 224.071 117.735 223.866 117.751C223.662 117.767 223.465 117.831 223.291 117.939C222.942 118.198 222.71 118.584 222.643 119.013C222.577 119.442 222.682 119.881 222.936 120.233C223.026 120.406 223.152 120.557 223.305 120.678C223.458 120.798 223.635 120.885 223.824 120.932C224.013 120.979 224.209 120.986 224.401 120.952C224.593 120.917 224.775 120.843 224.936 120.733C225.12 120.627 225.34 120.598 225.545 120.654C225.75 120.709 225.925 120.844 226.032 121.028C226.138 121.213 226.166 121.432 226.111 121.637C226.055 121.843 225.92 122.018 225.736 122.124C225.251 122.417 224.696 122.576 224.129 122.584" fill="black"/>
<path d="M224.233 130.349C225.252 136.449 230.678 138.498 234.615 138.449C238.765 138.413 244.003 135.769 244.407 129.382C244.877 121.957 244.886 105.706 244.182 102.821C243.478 99.9359 241.027 96.6639 237.327 94.4419C232.393 91.4739 224.711 94.8539 224.352 99.1889C223.167 113.544 223.516 126.063 224.233 130.349Z" fill="white"/>
<path d="M234.465 139.254C231.996 139.275 229.579 138.54 227.541 137.146C226.498 136.415 225.608 135.487 224.92 134.415C224.166 133.217 223.663 131.879 223.442 130.482C222.752 126.366 222.331 113.915 223.552 99.1229C223.722 97.0599 225.312 95.0669 227.804 93.7929C229.415 92.9654 231.2 92.5302 233.011 92.5229C234.67 92.4976 236.305 92.9238 237.741 93.7559C241.395 95.9499 244.162 99.3559 244.963 102.632C245.711 105.704 245.663 122.271 245.208 129.432C244.784 136.119 239.423 139.209 234.621 139.25L234.465 139.254ZM233.014 94.1229C231.456 94.132 229.921 94.5089 228.536 95.2229C226.542 96.2419 225.276 97.7499 225.152 99.2539C223.943 113.907 224.352 126.181 225.024 130.217C225.226 131.525 225.725 132.77 226.481 133.856C227.142 134.778 227.987 135.554 228.961 136.135C230.639 137.117 232.547 137.639 234.492 137.648H234.604C238.687 137.613 243.245 134.997 243.604 129.335C244.091 121.648 244.057 105.702 243.404 103.014C242.704 100.135 240.216 97.1139 236.916 95.1339C235.731 94.4492 234.382 94.0998 233.014 94.1229Z" fill="black"/>
<path d="M229.165 123.192C228.818 123.22 228.471 123.159 228.154 123.016C227.837 122.873 227.561 122.652 227.353 122.374C226.3 120.8 228.328 117.802 228.975 116.92C229.101 116.748 229.29 116.632 229.501 116.599C229.605 116.583 229.712 116.587 229.815 116.612C229.917 116.637 230.014 116.682 230.099 116.744C230.185 116.807 230.257 116.885 230.312 116.976C230.367 117.066 230.404 117.166 230.42 117.27C230.436 117.375 230.432 117.481 230.407 117.584C230.382 117.687 230.337 117.784 230.275 117.869C229.215 119.311 228.43 121.101 228.686 121.484C228.686 121.484 228.942 121.733 230.186 121.431C230.288 121.406 230.395 121.402 230.499 121.418C230.603 121.435 230.703 121.471 230.793 121.526C230.883 121.581 230.961 121.653 231.023 121.739C231.086 121.824 231.13 121.92 231.155 122.023C231.18 122.125 231.184 122.232 231.168 122.336C231.151 122.44 231.115 122.54 231.06 122.63C231.005 122.72 230.933 122.798 230.847 122.86C230.762 122.923 230.665 122.967 230.563 122.992C230.106 123.114 229.636 123.181 229.163 123.192" fill="black"/>
<path d="M232.757 116.537C232.741 116.325 232.81 116.116 232.949 115.956C233.087 115.795 233.284 115.696 233.495 115.68C233.705 115.693 233.901 115.787 234.043 115.942C234.184 116.098 234.259 116.303 234.251 116.513C234.265 116.724 234.195 116.932 234.057 117.092C233.919 117.253 233.724 117.352 233.513 117.37C233.303 117.359 233.105 117.265 232.964 117.109C232.822 116.953 232.748 116.747 232.757 116.537Z" fill="black"/>
<path d="M225.239 116.295C225.227 116.085 225.297 115.879 225.435 115.721C225.573 115.563 225.768 115.466 225.977 115.45C226.082 115.454 226.184 115.479 226.279 115.523C226.374 115.568 226.459 115.631 226.53 115.708C226.6 115.786 226.654 115.876 226.689 115.975C226.724 116.074 226.739 116.178 226.733 116.283C226.747 116.494 226.678 116.702 226.54 116.863C226.401 117.023 226.206 117.123 225.995 117.14C225.783 117.126 225.586 117.03 225.444 116.872C225.303 116.714 225.229 116.507 225.239 116.295Z" fill="black"/>
<path d="M242.948 122.453C245.69 124.071 247.813 119.882 245.482 118.324C245.202 118.14 244.882 118.028 244.548 117.997C244.215 117.965 243.879 118.015 243.57 118.143" fill="white"/>
<path d="M244.17 123.621C243.594 123.612 243.03 123.448 242.54 123.145C242.449 123.091 242.37 123.02 242.306 122.936C242.243 122.852 242.197 122.756 242.17 122.654C242.144 122.552 242.138 122.445 242.153 122.341C242.167 122.236 242.202 122.136 242.256 122.045C242.31 121.954 242.381 121.875 242.465 121.811C242.549 121.748 242.645 121.702 242.747 121.675C242.849 121.649 242.956 121.643 243.06 121.658C243.165 121.672 243.265 121.707 243.356 121.761C243.516 121.873 243.698 121.949 243.89 121.986C244.082 122.022 244.279 122.017 244.469 121.971C244.659 121.925 244.837 121.839 244.991 121.72C245.146 121.6 245.273 121.449 245.364 121.276C245.622 120.929 245.732 120.495 245.671 120.067C245.609 119.639 245.381 119.253 245.036 118.993C244.865 118.883 244.67 118.815 244.467 118.797C244.264 118.779 244.06 118.81 243.872 118.888C243.675 118.968 243.454 118.965 243.258 118.882C243.062 118.799 242.907 118.641 242.828 118.444C242.748 118.246 242.75 118.025 242.833 117.829C242.917 117.633 243.075 117.479 243.272 117.399C243.703 117.224 244.171 117.156 244.634 117.202C245.098 117.247 245.543 117.404 245.932 117.66C246.628 118.149 247.102 118.894 247.251 119.731C247.4 120.569 247.211 121.431 246.725 122.13C246.459 122.574 246.086 122.943 245.639 123.204C245.192 123.464 244.687 123.608 244.17 123.621Z" fill="black"/>
<path d="M226.979 122.827C226.972 122.695 226.963 122.574 226.956 122.441L226.979 122.827Z" fill="#6295E6"/>
<path d="M247.889 114.05C246.776 119.25 241.746 113.591 236.389 112.022C191.453 98.7739 256.57 73.4359 247.889 114.05Z" fill="black"/>
<path d="M223.655 199.51C223.57 199.51 223.486 199.496 223.405 199.47C213.133 196.115 207.696 194.718 207.638 194.705C207.432 194.652 207.255 194.519 207.146 194.336C207.038 194.152 207.006 193.933 207.06 193.726C207.113 193.52 207.245 193.343 207.429 193.235C207.612 193.126 207.832 193.095 208.038 193.148C208.092 193.162 213.571 194.57 223.903 197.948C224.089 198.004 224.248 198.125 224.351 198.289C224.454 198.453 224.494 198.649 224.463 198.84C224.433 199.032 224.334 199.205 224.185 199.329C224.036 199.453 223.847 199.519 223.653 199.514" fill="black"/>
<path d="M232.256 175.195C232.045 175.195 231.842 175.111 231.692 174.962C231.542 174.813 231.457 174.611 231.456 174.4C231.457 173.905 231.488 173.411 231.547 172.92C231.6 172.487 231.627 172.051 231.629 171.615C231.627 171.509 231.646 171.404 231.685 171.306C231.723 171.208 231.781 171.118 231.855 171.043C231.928 170.967 232.016 170.906 232.113 170.865C232.21 170.823 232.314 170.801 232.42 170.8H232.432C232.643 170.8 232.845 170.883 232.995 171.031C233.144 171.179 233.23 171.38 233.232 171.591C233.231 172.09 233.201 172.588 233.141 173.084C233.089 173.515 233.061 173.949 233.059 174.384C233.061 174.489 233.042 174.594 233.003 174.693C232.964 174.791 232.906 174.88 232.833 174.956C232.759 175.032 232.671 175.092 232.574 175.133C232.477 175.175 232.373 175.197 232.267 175.198L232.256 175.195Z" fill="black"/>
<path d="M135.633 274.081L199.854 285.055L230.089 302.09C230.089 302.09 263.519 294.123 274.772 271.062C286.025 248.001 274.583 229.93 271.733 225.101C265.974 226.536 218.414 224.665 218.414 224.665C218.414 224.665 190.214 238.754 169.514 251.105C157.75 258.046 146.434 265.72 135.633 274.081" fill="#FF0E11"/>
<path d="M256.108 262.263C255.979 262.263 255.852 262.232 255.738 262.172C255.624 262.112 255.526 262.026 255.452 261.92C255.378 261.814 255.331 261.692 255.315 261.565C255.299 261.437 255.313 261.307 255.358 261.186C256.258 258.73 258.594 251.821 258.558 249.378C258.557 249.273 258.576 249.168 258.615 249.07C258.654 248.972 258.711 248.883 258.785 248.807C258.858 248.732 258.946 248.671 259.043 248.629C259.14 248.588 259.244 248.565 259.349 248.564C259.454 248.562 259.559 248.582 259.657 248.621C259.755 248.66 259.844 248.717 259.92 248.791C259.995 248.864 260.056 248.952 260.098 249.049C260.139 249.145 260.162 249.25 260.163 249.355C260.208 252.593 257.001 261.363 256.865 261.74C256.808 261.894 256.705 262.028 256.569 262.121C256.434 262.215 256.273 262.264 256.108 262.263Z" fill="black"/>
<path d="M271.86 191.717C255.614 195.134 234.677 197.222 218.865 204.659C216.472 205.782 206.802 211.959 205.426 213.786C204.05 215.613 212.309 212.096 212.309 212.096C212.309 212.096 196.401 216.177 196.077 217.312C195.777 218.387 218.292 217.264 223.097 215.96C227.902 214.656 228.228 214.62 231.062 213.714C235.501 212.301 257.392 211.239 275.499 211.505C288.28 211.674 300.183 210.636 300.183 210.636C300.604 206.706 300.674 202.746 300.393 198.804C299.894 192.973 294.822 176.541 294.822 176.541" fill="white"/>
<path d="M200.825 218.542C197.999 218.542 195.949 218.378 195.537 217.962C195.432 217.846 195.356 217.707 195.316 217.556C195.276 217.406 195.273 217.247 195.306 217.095C195.416 216.705 195.647 215.888 204.8 213.282C206.372 211.245 216.15 205.044 218.523 203.931C230.38 198.357 245.304 195.726 258.468 193.405C263.134 192.583 267.543 191.805 271.695 190.931C271.798 190.909 271.905 190.908 272.008 190.928C272.112 190.947 272.211 190.987 272.299 191.044C272.387 191.102 272.464 191.177 272.523 191.264C272.583 191.351 272.624 191.449 272.646 191.552C272.668 191.655 272.669 191.762 272.649 191.865C272.63 191.969 272.59 192.068 272.532 192.156C272.475 192.244 272.4 192.32 272.313 192.38C272.226 192.439 272.128 192.481 272.025 192.503C267.848 193.382 263.425 194.161 258.746 194.986C245.681 197.286 230.872 199.901 219.207 205.386C215.452 207.456 211.834 209.764 208.374 212.297C209.515 211.992 210.76 211.666 212.108 211.319C212.208 211.285 212.313 211.271 212.418 211.278C212.523 211.285 212.625 211.313 212.719 211.359C212.814 211.406 212.898 211.47 212.967 211.549C213.036 211.628 213.089 211.72 213.123 211.82C213.157 211.919 213.171 212.025 213.164 212.13C213.157 212.234 213.129 212.337 213.083 212.431C213.036 212.525 212.972 212.61 212.893 212.679C212.813 212.748 212.722 212.801 212.622 212.835C206.78 215.321 205.404 215.285 204.9 214.937C202.327 215.68 200.061 216.385 198.56 216.929C204.16 217.103 218.989 216.238 222.888 215.181L225.827 214.389C227.999 213.807 228.727 213.611 230.819 212.945C235.303 211.518 257.019 210.429 275.512 210.697C286.396 210.836 296.782 210.097 299.455 209.884C299.811 206.222 299.858 202.537 299.595 198.867C299.106 193.188 294.104 176.936 294.053 176.773C293.99 176.569 294.011 176.349 294.11 176.161C294.21 175.972 294.38 175.831 294.583 175.768C294.787 175.706 295.007 175.726 295.196 175.826C295.384 175.925 295.525 176.095 295.588 176.299C295.796 176.974 300.688 192.88 301.195 198.73C301.485 202.728 301.414 206.744 300.982 210.73C300.961 210.913 300.877 211.084 300.744 211.212C300.611 211.341 300.438 211.42 300.254 211.435C300.137 211.445 288.172 212.472 275.49 212.307C257.461 212.043 235.582 213.118 231.307 214.479C229.184 215.156 228.443 215.356 226.242 215.945L223.31 216.737C220.745 217.437 208.17 218.544 200.825 218.544" fill="black"/>
<path d="M248.849 99.6469C237.177 92.91 246.45 82.0439 255.162 84.8689C263.874 87.6939 258.784 105.381 248.845 99.6469" fill="black"/>
<path d="M200.441 283.661C200.259 283.664 200.082 283.606 199.938 283.495C199.795 283.384 199.693 283.228 199.65 283.051C199.606 282.875 199.624 282.689 199.701 282.524C199.777 282.36 199.907 282.226 200.07 282.145C203.85 280.187 207.61 278.067 211.241 276.018C214.911 273.949 218.705 271.809 222.546 269.818C222.64 269.769 222.742 269.74 222.847 269.731C222.952 269.722 223.058 269.734 223.159 269.766C223.259 269.798 223.353 269.849 223.433 269.917C223.514 269.985 223.58 270.068 223.629 270.162C223.678 270.256 223.707 270.358 223.716 270.463C223.725 270.568 223.713 270.674 223.681 270.775C223.649 270.875 223.598 270.969 223.53 271.049C223.462 271.13 223.379 271.196 223.285 271.245C219.47 273.223 215.685 275.355 212.029 277.417C208.373 279.479 204.61 281.6 200.809 283.572C200.694 283.63 200.568 283.661 200.439 283.661" fill="black"/>
<path d="M131.639 225.697C131.534 225.701 131.429 225.684 131.33 225.648C131.232 225.611 131.141 225.556 131.064 225.485C130.908 225.34 130.816 225.14 130.808 224.928C130.8 224.716 130.876 224.509 131.02 224.353C131.165 224.197 131.365 224.105 131.577 224.097L356.463 206.766C356.674 206.754 356.882 206.825 357.042 206.962C357.203 207.1 357.304 207.294 357.325 207.505C357.333 207.61 357.321 207.716 357.288 207.816C357.256 207.917 357.204 208.01 357.135 208.09C357.066 208.17 356.982 208.236 356.888 208.283C356.794 208.331 356.691 208.359 356.586 208.367L131.705 225.695H131.642" fill="black"/>
<path d="M274.101 196.11H274.091C273.985 196.109 273.881 196.087 273.784 196.046C273.687 196.004 273.599 195.944 273.525 195.869C273.451 195.793 273.393 195.704 273.354 195.605C273.315 195.507 273.296 195.402 273.298 195.297C273.034 190.402 272.475 185.527 271.623 180.699C271.599 180.596 271.595 180.49 271.611 180.386C271.628 180.282 271.665 180.182 271.72 180.093C271.775 180.003 271.848 179.925 271.933 179.863C272.018 179.801 272.115 179.757 272.217 179.732C272.32 179.708 272.426 179.704 272.53 179.721C272.634 179.737 272.734 179.774 272.824 179.83C272.914 179.885 272.992 179.957 273.053 180.042C273.115 180.128 273.16 180.224 273.184 180.327C274.069 185.281 274.645 190.285 274.908 195.31C274.906 195.521 274.821 195.723 274.671 195.871C274.521 196.02 274.319 196.103 274.108 196.103" fill="black"/>
<path d="M162.406 221.484L145.506 178.034L214.217 172.879L232.15 216.596L162.406 221.484Z" fill="white"/>
<path d="M162.594 222.461C162.433 222.46 162.275 222.411 162.142 222.32C162.009 222.23 161.906 222.101 161.847 221.951L144.984 178.712C144.939 178.595 144.921 178.47 144.933 178.345C144.945 178.22 144.986 178.1 145.053 177.994C145.12 177.888 145.211 177.8 145.319 177.736C145.426 177.671 145.547 177.633 145.672 177.624L214.241 172.491C214.264 172.491 214.287 172.491 214.311 172.491C214.469 172.493 214.622 172.541 214.753 172.63C214.883 172.719 214.984 172.845 215.043 172.991L232.939 216.491C232.987 216.608 233.006 216.735 232.995 216.861C232.984 216.987 232.944 217.109 232.877 217.217C232.81 217.324 232.718 217.414 232.609 217.479C232.501 217.544 232.378 217.582 232.252 217.591L162.652 222.455L162.594 222.461ZM213.781 174.134L146.873 179.14L163.13 220.82L231.03 216.075L213.781 174.134Z" fill="black"/>
<path d="M221.805 212.455C221.645 212.455 221.489 212.408 221.356 212.319C221.224 212.23 221.121 212.103 221.061 211.955L208.746 181.346L154.792 185.313C154.687 185.323 154.58 185.311 154.479 185.279C154.378 185.247 154.285 185.194 154.205 185.125C154.124 185.056 154.059 184.972 154.012 184.877C153.965 184.782 153.937 184.679 153.931 184.573C153.923 184.468 153.936 184.363 153.969 184.263C154.002 184.163 154.055 184.07 154.124 183.991C154.192 183.911 154.276 183.846 154.37 183.799C154.465 183.752 154.567 183.723 154.672 183.716L209.213 179.704C209.382 179.692 209.551 179.734 209.695 179.824C209.838 179.913 209.95 180.047 210.013 180.204L222.549 211.356C222.588 211.454 222.608 211.558 222.607 211.663C222.606 211.769 222.584 211.873 222.543 211.969C222.501 212.066 222.441 212.154 222.366 212.227C222.291 212.301 222.202 212.359 222.104 212.398C222.009 212.437 221.907 212.456 221.804 212.456" fill="black"/>
<path d="M92.412 34.02L92.164 98.92C92.164 98.92 67.917 100.804 55.114 103.649C42.311 106.494 16.535 108.685 16.535 108.685L10.494 56.729C10.494 56.729 7.82599 51.197 30.127 44.152C42.011 40.399 92.412 34.02 92.412 34.02Z" fill="white"/>
<path d="M16.534 109.489C16.3362 109.49 16.145 109.418 15.9973 109.287C15.8495 109.155 15.7558 108.974 15.734 108.777L9.707 56.922C9.49347 56.1512 9.57439 55.3285 9.934 54.614C11.053 52.014 15.423 47.953 29.888 43.384C34.6428 42.0741 39.4669 41.0305 44.338 40.258C49.883 39.275 56.754 38.179 64.76 37.001C78.336 35.001 90.923 33.401 92.314 33.221C92.4271 33.2067 92.542 33.2168 92.6509 33.2506C92.7598 33.2844 92.8603 33.341 92.9455 33.4168C93.0307 33.4926 93.0988 33.5857 93.1451 33.6899C93.1914 33.7941 93.2149 33.907 93.214 34.021L92.968 98.914C92.9685 99.1165 92.8923 99.3117 92.7545 99.4601C92.6168 99.6086 92.428 99.6993 92.226 99.714C92.171 99.714 86.107 100.193 78.392 101.029C71.449 101.781 61.805 102.982 55.292 104.429C42.568 107.255 16.861 109.459 16.607 109.48L16.534 109.489ZM91.605 34.934C88.079 35.388 75.559 37.02 62.467 38.978C45.721 41.478 34.921 43.478 30.367 44.92C15.753 49.536 12.216 53.372 11.408 55.248C11.2284 55.596 11.1613 55.9912 11.216 56.379C11.2548 56.46 11.2801 56.5468 11.291 56.636L17.242 107.814C21.542 107.43 43.559 105.39 54.942 102.861C66.431 100.314 87.298 98.508 91.364 98.173L91.605 34.934Z" fill="black"/>
<path d="M49.964 75.492L50.786 150.762C50.786 150.762 36.032 149.903 23.935 142.482C19.6808 139.858 15.6838 136.839 11.997 133.464L10.251 55.47C10.251 55.47 12.095 63.97 28.063 70.396C38.071 74.415 49.963 75.496 49.963 75.496" fill="white"/>
<path d="M50.786 151.565H50.74C47.6114 151.322 44.5052 150.847 41.447 150.144C38.5121 149.493 35.6238 148.649 32.801 147.615C29.5679 146.439 26.458 144.948 23.516 143.165C19.2179 140.508 15.1774 137.455 11.447 134.047C11.3701 133.974 11.3084 133.887 11.2654 133.79C11.2225 133.693 11.1993 133.589 11.197 133.483L9.447 55.4879C9.44168 55.288 9.51141 55.0934 9.64246 54.9424C9.7735 54.7913 9.95636 54.6948 10.155 54.6719C10.1895 54.6674 10.2242 54.6651 10.259 54.6649C10.4418 54.6651 10.619 54.7284 10.7605 54.8441C10.9021 54.9598 10.9994 55.1208 11.036 55.2999C11.6468 57.1248 12.6476 58.7949 13.969 60.1939C15.5135 61.949 17.2723 63.5031 19.204 64.8199C22.0671 66.7659 25.1389 68.3857 28.362 69.6489C33.0385 71.4526 37.8821 72.7888 42.822 73.6379C46.976 74.4009 49.913 74.6789 50.036 74.6899C50.2346 74.7074 50.4196 74.7983 50.5546 74.945C50.6896 75.0917 50.765 75.2835 50.766 75.4829L51.589 150.753C51.5901 150.863 51.5686 150.973 51.5258 151.074C51.483 151.176 51.4197 151.268 51.34 151.344C51.1911 151.487 50.9924 151.566 50.786 151.565ZM11.136 59.1649L12.792 133.106C16.3766 136.345 20.2467 139.254 24.355 141.796C29.1367 144.637 34.3168 146.745 39.723 148.052C43.0898 148.915 46.5158 149.528 49.973 149.886L49.168 76.2169C46.308 75.8949 36.31 74.5749 27.768 71.1429C23.7367 69.5887 19.9465 67.4699 16.511 64.8499C14.4275 63.2538 12.6129 61.3345 11.136 59.1649Z" fill="black"/>
<path d="M190.92 31.538L190.62 58.315L155.273 59.888L154.591 32.7L190.92 31.538Z" fill="white"/>
<path d="M155.223 60.693H155.187C154.977 60.693 154.776 60.6108 154.627 60.464C154.477 60.3172 154.391 60.1175 154.387 59.908L153.703 32.721C153.698 32.5093 153.777 32.3043 153.922 32.1501C154.067 31.996 154.267 31.9051 154.479 31.897L190.808 30.734H190.814C191.031 30.7309 191.24 30.8131 191.396 30.963C191.473 31.0395 191.534 31.1306 191.576 31.2311C191.617 31.3316 191.638 31.4393 191.637 31.548L191.337 58.325C191.337 58.5314 191.258 58.7299 191.115 58.879C190.972 59.0281 190.777 59.1162 190.571 59.125L155.223 60.693ZM190.023 32.369L155.328 33.479L155.969 59.047L189.742 57.547L190.023 32.369Z" fill="black"/>
<path d="M124.31 55.325L123.338 88.881L109.777 85.6L103.594 67.805C103.594 67.805 103.077 65.687 107.72 61.813C114.217 56.378 124.31 55.325 124.31 55.325Z" fill="white"/>
<path d="M123.192 89.6869C123.128 89.6868 123.065 89.679 123.003 89.6639L109.436 86.3829C109.305 86.3515 109.184 86.2876 109.085 86.197C108.985 86.1065 108.91 85.9923 108.866 85.8649L102.689 68.0709C102.567 67.3414 102.689 66.5921 103.036 65.9389C104.011 64.0801 105.385 62.4597 107.06 61.1939C113.678 55.6559 123.66 54.5679 124.08 54.5239C124.11 54.5205 124.139 54.5188 124.169 54.5189C124.277 54.5189 124.383 54.5405 124.482 54.5826C124.581 54.6246 124.671 54.6863 124.746 54.7637C124.82 54.8412 124.879 54.933 124.917 55.0336C124.955 55.1341 124.973 55.2414 124.969 55.3489L123.997 88.9049C123.991 89.1136 123.904 89.3117 123.755 89.4576C123.606 89.6035 123.406 89.6857 123.197 89.6869H123.192ZM123.336 56.2519C121.069 56.6138 118.835 57.1616 116.658 57.8899C113.546 58.8625 110.64 60.4025 108.088 62.4319C104.045 65.8059 104.236 67.6379 104.236 67.6559L110.236 84.9189L122.416 87.8659L123.336 56.2519Z" fill="black"/>
<path d="M136.004 81.4L135.656 123.018C135.656 123.018 124.966 122.631 116.801 119.495C111.756 117.471 107.39 114.053 104.214 109.641L104.335 67.249C106.563 71.7052 110.312 75.2169 114.904 77.149C122.747 80.575 136.004 81.398 136.004 81.398" fill="white"/>
<path d="M135.506 123.822H135.477C135.036 123.806 124.577 123.402 116.364 120.247C111.154 118.176 106.651 114.648 103.394 110.084C103.307 109.952 103.261 109.797 103.261 109.639L103.382 67.2459C103.383 67.0609 103.448 66.8819 103.565 66.739C103.683 66.5961 103.846 66.4979 104.027 66.4609C104.078 66.451 104.131 66.446 104.183 66.4459C104.341 66.4454 104.495 66.4917 104.627 66.5789C104.759 66.6661 104.862 66.7903 104.923 66.9359C105.538 68.2108 106.31 69.4032 107.223 70.4849C108.156 71.6223 109.206 72.6583 110.356 73.5759C111.797 74.7244 113.384 75.6783 115.074 76.4129C122.703 79.7449 135.774 80.5889 135.904 80.5969C136.11 80.6088 136.303 80.6996 136.444 80.8505C136.584 81.0014 136.661 81.2008 136.658 81.4069L136.31 123.024C136.309 123.131 136.287 123.238 136.244 123.336C136.202 123.435 136.14 123.524 136.063 123.599C135.913 123.743 135.714 123.823 135.506 123.822ZM104.979 70.2139L104.868 109.39C107.955 113.559 112.131 116.796 116.937 118.746C120.301 119.971 123.782 120.845 127.326 121.354C130.583 121.867 133.351 122.087 134.711 122.172L135.045 82.1519C131.945 81.9099 121.29 80.8859 114.433 77.8919C110.632 76.2572 107.359 73.5991 104.979 70.2139Z" fill="black"/>
<path d="M159.712 44.886H159.612H159.606C159.08 44.87 158.563 44.7446 158.088 44.5179C157.613 44.2911 157.191 43.968 156.848 43.569C156.136 42.7545 155.761 41.6998 155.799 40.619C155.794 39.5663 156.202 38.5537 156.935 37.7986C157.669 37.0434 158.669 36.6059 159.721 36.58H159.842C160.368 36.5958 160.884 36.7208 161.359 36.9472C161.834 37.1736 162.256 37.4964 162.599 37.895C163.31 38.7099 163.684 39.7643 163.647 40.845C163.623 41.9168 163.195 42.9399 162.449 43.71C162.095 44.0799 161.671 44.3748 161.2 44.5769C160.73 44.7789 160.224 44.8841 159.712 44.886ZM159.735 38.186C159.43 38.1882 159.129 38.2534 158.85 38.3775C158.572 38.5015 158.322 38.6818 158.116 38.907C157.672 39.3851 157.42 40.0098 157.407 40.662C157.38 41.3352 157.611 41.9932 158.053 42.502C158.252 42.7344 158.496 42.923 158.772 43.0555C159.047 43.1881 159.347 43.2618 159.653 43.272H159.719C160.023 43.2693 160.323 43.2038 160.601 43.0795C160.879 42.9553 161.127 42.775 161.332 42.55C161.774 42.0729 162.026 41.4503 162.04 40.8C162.067 40.1279 161.838 39.4708 161.399 38.961C161.201 38.7283 160.956 38.5396 160.68 38.4068C160.405 38.2741 160.105 38.2002 159.799 38.19L159.735 38.186Z" fill="black"/>
<path d="M160.332 55.591H160.227C159.701 55.5742 159.184 55.4484 158.71 55.2216C158.235 54.9947 157.812 54.6717 157.469 54.273C156.758 53.462 156.383 52.4108 156.419 51.333C156.442 50.2641 156.865 49.2427 157.604 48.47C157.956 48.0988 158.379 47.8028 158.849 47.6001C159.319 47.3975 159.825 47.2923 160.336 47.291H160.46C160.986 47.3071 161.503 47.4323 161.977 47.6585C162.452 47.8846 162.875 48.207 163.219 48.605C163.929 49.417 164.304 50.4689 164.266 51.547C164.242 52.6184 163.815 53.6412 163.069 54.411C162.716 54.7817 162.291 55.0772 161.821 55.28C161.351 55.4828 160.844 55.5885 160.332 55.591ZM160.319 48.901C159.69 48.9337 159.098 49.2109 158.67 49.6737C158.242 50.1364 158.012 50.748 158.029 51.378C158.004 52.0476 158.235 52.7017 158.675 53.207C158.874 53.4388 159.119 53.6268 159.394 53.759C159.67 53.8912 159.97 53.9648 160.275 53.975H160.375C160.678 53.9727 160.977 53.9067 161.252 53.7815C161.528 53.6563 161.774 53.4745 161.975 53.248C162.41 52.7675 162.657 52.146 162.67 51.498C162.692 50.8292 162.459 50.177 162.019 49.673C161.82 49.441 161.575 49.2527 161.3 49.1202C161.024 48.9876 160.724 48.9137 160.419 48.903L160.319 48.901Z" fill="black"/>
<path d="M173.203 40.067C172.993 40.067 172.791 39.9849 172.641 39.8382C172.491 39.6916 172.404 39.492 172.398 39.282C172.393 39.0721 172.47 38.8684 172.613 38.7144C172.756 38.5605 172.953 38.4685 173.163 38.458L189.763 37.549C189.976 37.5397 190.183 37.614 190.342 37.7561C190.5 37.8982 190.596 38.0967 190.61 38.309C190.616 38.4145 190.602 38.5202 190.567 38.62C190.532 38.7198 190.478 38.8118 190.408 38.8905C190.337 38.9693 190.252 39.0333 190.156 39.0789C190.061 39.1244 189.958 39.1506 189.852 39.156L173.252 40.064H173.203" fill="black"/>
<path d="M173.203 50.526C172.993 50.526 172.791 50.4439 172.641 50.2972C172.491 50.1506 172.404 49.951 172.398 49.741C172.393 49.5311 172.47 49.3274 172.613 49.1735C172.756 49.0195 172.953 48.9275 173.163 48.917L189.763 47.996C189.975 47.9875 190.182 48.0619 190.341 48.2037C190.499 48.3454 190.595 48.5432 190.61 48.755C190.622 48.968 190.549 49.177 190.406 49.3362C190.264 49.4953 190.065 49.5916 189.852 49.604L173.252 50.524H173.203" fill="black"/>
<path d="M173.36 44.243C173.15 44.243 172.948 44.1609 172.798 44.0142C172.648 43.8676 172.561 43.668 172.555 43.458C172.55 43.2481 172.627 43.0444 172.77 42.8905C172.913 42.7365 173.11 42.6445 173.32 42.634L189.919 41.713C190.025 41.7072 190.13 41.7222 190.23 41.7572C190.33 41.7922 190.422 41.8465 190.501 41.917C190.579 41.9876 190.643 42.0729 190.689 42.1682C190.735 42.2635 190.762 42.3669 190.768 42.4725C190.773 42.5781 190.758 42.6838 190.723 42.7836C190.688 42.8834 190.634 42.9753 190.563 43.0541C190.493 43.1329 190.408 43.197 190.312 43.2428C190.217 43.2886 190.114 43.3152 190.008 43.321L173.408 44.241H173.36" fill="black"/>
<path d="M173.361 54.701C173.151 54.7009 172.949 54.6188 172.799 54.4722C172.649 54.3255 172.562 54.1259 172.556 53.916C172.551 53.706 172.628 53.5023 172.771 53.3484C172.914 53.1945 173.111 53.1024 173.321 53.092L189.919 52.172C190.131 52.1631 190.339 52.2377 190.497 52.3797C190.655 52.5216 190.752 52.7198 190.766 52.932C190.772 53.0374 190.758 53.143 190.723 53.2428C190.688 53.3425 190.634 53.4344 190.564 53.5132C190.494 53.5919 190.408 53.6559 190.313 53.7015C190.218 53.7472 190.114 53.7735 190.009 53.779L173.409 54.699H173.361" fill="black"/>
<path d="M23.847 62.933C23.6612 62.9329 23.4811 62.8686 23.3373 62.7509C23.1935 62.6332 23.0948 62.4693 23.0581 62.2871C23.0213 62.105 23.0488 61.9157 23.1357 61.7514C23.2226 61.5872 23.3637 61.4581 23.535 61.386C36.625 55.881 66.667 48.096 85.867 47.923H85.874C86.0875 47.9221 86.2926 48.006 86.4442 48.1563C86.5959 48.3066 86.6816 48.511 86.6825 48.7245C86.6834 48.938 86.5995 49.1431 86.4492 49.2947C86.2989 49.4464 86.0945 49.5321 85.881 49.533C66.881 49.705 37.125 57.417 24.161 62.87C24.0628 62.9112 23.9575 62.9326 23.851 62.933" fill="black"/>
<path d="M41.237 72.06C41.047 72.0589 40.8634 71.9907 40.7189 71.8673C40.5743 71.7439 40.4781 71.5734 40.4472 71.3859C40.4163 71.1983 40.4527 71.0059 40.5501 70.8427C40.6474 70.6795 40.7993 70.5559 40.979 70.494C53.012 66.339 65.681 64.624 77.937 62.964L78.477 62.891C78.6892 62.8625 78.904 62.9194 79.0742 63.0493C79.2444 63.1792 79.356 63.3713 79.3845 63.5835C79.413 63.7957 79.3561 64.0105 79.2262 64.1807C79.0963 64.3508 78.9042 64.4625 78.692 64.491L78.151 64.565C65.414 66.284 53.385 67.913 41.503 72.017C41.4173 72.0458 41.3274 72.0603 41.237 72.06Z" fill="black"/>
<path d="M56.213 83.6449C56.023 83.6439 55.8394 83.5756 55.6949 83.4522C55.5503 83.3288 55.4541 83.1583 55.4232 82.9708C55.3923 82.7833 55.4287 82.5909 55.5261 82.4276C55.6234 82.2644 55.7753 82.1409 55.955 82.0789C61.332 80.2199 73.951 78.6329 74.486 78.5669C74.5912 78.5529 74.6981 78.56 74.8005 78.5877C74.9029 78.6155 74.9988 78.6633 75.0826 78.7285C75.1663 78.7936 75.2363 78.8748 75.2884 78.9672C75.3405 79.0596 75.3737 79.1615 75.386 79.2669C75.4 79.3721 75.3929 79.479 75.3652 79.5814C75.3374 79.6839 75.2896 79.7797 75.2245 79.8635C75.1593 79.9473 75.0782 80.0172 74.9857 80.0693C74.8933 80.1214 74.7914 80.1546 74.686 80.1669C74.557 80.1829 61.698 81.7999 56.48 83.6039C56.3939 83.6321 56.3036 83.646 56.213 83.6449Z" fill="black"/>
<path d="M53.902 97.1059C53.6919 97.1266 53.4822 97.0633 53.3185 96.93C53.1549 96.7967 53.0505 96.6042 53.0282 96.3943C53.0059 96.1843 53.0675 95.9741 53.1995 95.8094C53.3315 95.6447 53.5233 95.5389 53.733 95.5149C53.885 95.4809 69.045 92.1549 76.448 91.3729C76.553 91.3614 76.6592 91.3708 76.7606 91.4006C76.8619 91.4304 76.9564 91.48 77.0385 91.5464C77.1206 91.6129 77.1887 91.695 77.2389 91.7879C77.2891 91.8809 77.3204 91.9828 77.331 92.0879C77.3428 92.193 77.3336 92.2994 77.304 92.4009C77.2744 92.5024 77.225 92.5971 77.1586 92.6794C77.0922 92.7616 77.0102 92.83 76.9172 92.8804C76.8242 92.9307 76.7222 92.9622 76.617 92.9729C69.302 93.7469 54.23 97.0539 54.077 97.0869C54.0196 97.0999 53.9609 97.1063 53.902 97.1059Z" fill="black"/>
<path d="M111.302 106.28H111.278C111.172 106.277 111.068 106.254 110.972 106.21C110.875 106.167 110.788 106.105 110.716 106.028C110.643 105.951 110.587 105.861 110.55 105.762C110.513 105.663 110.495 105.558 110.499 105.452C110.586 102.39 110.377 99.2589 110.176 96.2329C109.97 93.1439 109.759 89.9519 109.85 86.7629C109.851 86.6569 109.873 86.5521 109.916 86.4549C109.958 86.3576 110.019 86.2699 110.096 86.1968C110.173 86.1238 110.264 86.067 110.363 86.0297C110.462 85.9924 110.568 85.9755 110.674 85.9799C110.78 85.9825 110.884 86.006 110.981 86.0492C111.077 86.0923 111.164 86.1541 111.237 86.2311C111.309 86.3082 111.366 86.3988 111.403 86.4978C111.44 86.5968 111.458 86.7022 111.454 86.8079C111.366 89.9189 111.576 93.0739 111.779 96.1239C111.982 99.1739 112.193 102.357 112.104 105.498C112.099 105.707 112.013 105.906 111.863 106.052C111.714 106.198 111.513 106.28 111.304 106.28" fill="black"/>
<path d="M119.284 107.637H119.257C119.151 107.634 119.047 107.611 118.951 107.568C118.854 107.524 118.767 107.462 118.695 107.385C118.622 107.308 118.566 107.218 118.529 107.119C118.492 107.02 118.474 106.915 118.478 106.809C118.502 105.937 118.534 105.039 118.566 104.123C118.757 98.632 118.981 92.406 117.876 87.37C117.853 87.267 117.851 87.1605 117.87 87.0567C117.888 86.9528 117.927 86.8536 117.984 86.7648C118.041 86.6759 118.114 86.5991 118.201 86.5388C118.287 86.4784 118.385 86.4357 118.488 86.413C118.591 86.3904 118.697 86.3882 118.801 86.4067C118.905 86.4252 119.004 86.464 119.093 86.5208C119.182 86.5777 119.259 86.6514 119.319 86.7379C119.38 86.8245 119.422 86.922 119.445 87.025C120.592 92.259 120.37 98.591 120.174 104.179C120.141 105.092 120.111 105.986 120.086 106.854C120.081 107.063 119.995 107.262 119.845 107.408C119.696 107.554 119.495 107.636 119.286 107.636" fill="black"/>
<path d="M128.309 108.788H128.288C128.182 108.785 128.078 108.761 127.981 108.718C127.884 108.675 127.797 108.613 127.725 108.535C127.652 108.458 127.596 108.367 127.559 108.268C127.522 108.168 127.505 108.063 127.509 107.957C127.589 105.123 127.609 102.241 127.632 99.4569C127.655 96.6729 127.675 93.7839 127.756 90.9399C127.754 90.8328 127.774 90.7263 127.815 90.6275C127.857 90.5286 127.918 90.4394 127.996 90.3657C128.074 90.292 128.166 90.2353 128.267 90.1994C128.368 90.1634 128.475 90.1489 128.582 90.1569C128.688 90.1596 128.792 90.1832 128.888 90.2264C128.985 90.2696 129.072 90.3315 129.144 90.4085C129.217 90.4855 129.273 90.576 129.31 90.675C129.347 90.7739 129.365 90.8793 129.361 90.9849C129.281 93.8119 129.261 96.6849 129.239 99.4669C129.218 102.267 129.196 105.154 129.115 108.005C129.11 108.214 129.024 108.413 128.874 108.559C128.725 108.705 128.524 108.787 128.315 108.787" fill="black"/>
<path d="M126.695 92.494C126.599 92.4942 126.504 92.4769 126.415 92.443C125.647 92.156 124.744 91.782 123.762 91.375C120.334 89.953 115.639 88.004 113.071 88.427C112.967 88.444 112.86 88.4403 112.757 88.4161C112.654 88.3919 112.557 88.3477 112.472 88.286C112.298 88.1614 112.182 87.9731 112.147 87.7625C112.113 87.5519 112.164 87.3363 112.288 87.1631C112.413 86.9899 112.601 86.8733 112.812 86.839C115.827 86.339 120.568 88.307 124.377 89.887C125.338 90.287 126.225 90.652 126.977 90.934C127.154 91 127.301 91.1259 127.395 91.2897C127.488 91.4535 127.521 91.6448 127.487 91.8303C127.454 92.0158 127.357 92.1838 127.212 92.3049C127.068 92.426 126.885 92.4925 126.697 92.493" fill="black"/>
<path d="M125.179 98.7759C125.011 98.7758 124.847 98.723 124.71 98.6249C122.625 97.1219 119.499 96.5199 116.482 95.9369C114.528 95.6162 112.602 95.1403 110.723 94.5139C110.528 94.4357 110.371 94.2845 110.286 94.0925C110.201 93.9004 110.194 93.6827 110.267 93.4857C110.34 93.2888 110.487 93.1281 110.677 93.0379C110.867 92.9477 111.084 92.9352 111.283 93.0029C113.078 93.599 114.918 94.0505 116.785 94.3529C119.977 94.9679 123.276 95.6049 125.649 97.3139C125.787 97.4133 125.891 97.5541 125.944 97.716C125.998 97.8779 125.998 98.0525 125.946 98.2148C125.894 98.377 125.791 98.5185 125.653 98.6188C125.516 98.7191 125.349 98.7731 125.179 98.7729" fill="black"/>
<path d="M125.996 105.966C125.901 105.966 125.807 105.949 125.718 105.915C124.106 105.403 122.458 105.012 120.787 104.747C117.05 104.035 113.186 103.3 111.241 101.222C111.095 101.067 111.016 100.859 111.023 100.646C111.03 100.433 111.121 100.231 111.276 100.085C111.431 99.9388 111.639 99.8604 111.852 99.867C112.065 99.8735 112.267 99.9645 112.413 100.12C113.998 101.816 117.765 102.533 121.087 103.166C122.845 103.446 124.579 103.861 126.274 104.408C126.451 104.473 126.599 104.599 126.693 104.763C126.787 104.927 126.82 105.118 126.787 105.304C126.754 105.49 126.657 105.658 126.512 105.78C126.367 105.901 126.185 105.968 125.996 105.968" fill="black"/>
<path d="M32.609 86.7869C32.6109 85.2419 33.2257 83.7608 34.3186 82.6687C35.4114 81.5765 36.893 80.9627 38.438 80.9619C39.9798 81.053 41.4228 81.7511 42.4511 82.9035C43.4795 84.0559 44.0094 85.5687 43.925 87.1109C43.9231 88.6554 43.3087 90.1361 42.2165 91.2281C41.1243 92.3201 39.6435 92.9343 38.099 92.9359C36.5566 92.8456 35.1129 92.1478 34.0839 90.9954C33.055 89.8429 32.5246 88.3296 32.609 86.7869Z" fill="black"/>
<path d="M38.246 93.742C38.188 93.742 38.134 93.742 38.076 93.742C36.3212 93.6428 34.6768 92.8533 33.5021 91.5459C32.3274 90.2385 31.7176 88.5194 31.806 86.764C31.8441 85.0168 32.5364 83.3475 33.746 82.086C34.3252 81.4771 35.022 80.992 35.7941 80.6601C36.5662 80.3282 37.3976 80.1564 38.238 80.155C38.312 80.155 38.387 80.155 38.461 80.155C40.215 80.2558 41.8581 81.0458 43.032 82.353C44.206 83.6601 44.8156 85.3783 44.728 87.133C44.6868 88.8872 43.9817 90.5604 42.755 91.815C42.1706 92.4216 41.4704 92.9047 40.6959 93.2357C39.9214 93.5667 39.0883 93.7389 38.246 93.742ZM38.318 81.767C37.6821 81.7707 37.0534 81.9021 36.4693 82.1536C35.8852 82.4051 35.3576 82.7715 34.918 83.231C33.9847 84.1919 33.4489 85.4699 33.418 86.809C33.3424 88.138 33.7949 89.443 34.6771 90.4399C35.5593 91.4367 36.7997 92.0445 38.128 92.131H38.29C39.5906 92.0749 40.8194 91.5191 41.7205 90.5795C42.6216 89.6399 43.1254 88.3889 43.127 87.087C43.2015 85.758 42.7479 84.4533 41.865 83.4571C40.9821 82.4608 39.7414 81.8538 38.413 81.768H38.313L38.318 81.767Z" fill="white"/>
<path d="M427.713 107.994C416.266 105.111 404.651 102.944 392.935 101.506C374.362 99.303 360.912 99.121 360.912 99.121L360.441 33.015C360.441 33.015 403.79 35.242 421.302 37.639C431.65 39.068 453.767 44.648 460.541 48.885C468.925 54.127 468.986 58.254 468.986 58.254L447.004 99.69L427.713 107.994Z" fill="white"/>
<path d="M427.712 108.799C427.643 108.799 427.574 108.791 427.507 108.774C427.472 108.764 423.346 107.68 416.975 106.337C411.188 105.117 402.303 103.428 392.84 102.305C374.908 100.179 361.471 99.936 360.908 99.926H360.9C360.69 99.9221 360.489 99.8363 360.341 99.6869C360.194 99.5375 360.11 99.3363 360.108 99.126L359.637 33.021C359.636 32.9114 359.658 32.8029 359.7 32.7019C359.743 32.601 359.806 32.5098 359.885 32.434C360.043 32.2881 360.252 32.2083 360.467 32.211H360.481H360.546C365.037 32.45 404.856 34.576 421.41 36.843C432.249 38.338 454.281 44.021 460.964 48.202C469.629 53.619 469.784 58.056 469.787 58.242C469.789 58.3779 469.757 58.5121 469.693 58.632L447.712 100.068C447.626 100.229 447.488 100.356 447.321 100.43L428.03 108.73C427.93 108.775 427.822 108.798 427.712 108.799ZM361.249 33.863L361.708 98.333C365.076 98.417 377.29 98.84 393.029 100.707C400.235 101.562 407.941 102.83 415.929 104.476C422.155 105.758 426.47 106.844 427.645 107.147L446.423 99.063L468.152 58.1C467.878 57.0164 467.366 56.0078 466.652 55.148C464.822 52.914 462.609 51.0244 460.115 49.568C453.594 45.49 431.898 39.911 421.193 38.437C405.413 36.277 368.493 34.248 361.25 33.863H361.249Z" fill="black"/>
<path d="M468.967 57.927L469.196 131.732C469.196 131.732 460.862 141.477 440.838 147.045C418.554 153.243 411.213 152.65 411.213 152.65L411.341 80.116C421.581 78.5845 431.715 76.4136 441.683 73.616C462.242 67.587 468.967 57.927 468.967 57.927Z" fill="white"/>
<path d="M411.851 153.473C411.66 153.473 411.383 153.473 411.151 153.454C410.95 153.436 410.764 153.345 410.627 153.197C410.49 153.049 410.414 152.855 410.412 152.654L410.538 80.115C410.538 79.921 410.607 79.7334 410.734 79.5866C410.861 79.4397 411.036 79.3433 411.228 79.315C421.428 77.7832 431.524 75.6204 441.457 72.839C445.807 71.5868 450.041 69.9586 454.109 67.973C457.006 66.5546 459.773 64.8856 462.379 62.985C464.61 61.4395 466.608 59.5808 468.309 57.466C468.406 57.3243 468.545 57.2174 468.707 57.161C468.869 57.1047 469.045 57.1018 469.208 57.1529C469.372 57.204 469.515 57.3063 469.616 57.4448C469.717 57.5832 469.771 57.7505 469.77 57.922L470 131.728C470 131.921 469.931 132.107 469.806 132.254C469.46 132.659 461.091 142.246 441.051 147.818C434.227 149.777 427.303 151.372 420.309 152.595C417.517 153.106 414.689 153.399 411.851 153.473ZM468.17 60.105C465.675 62.6534 462.86 64.8675 459.795 66.692C454.199 70.0367 448.184 72.6259 441.908 74.392C436.462 75.98 430.241 77.472 423.419 78.822C417.973 79.9 413.719 80.572 412.143 80.81L412.018 151.857C414.847 151.752 417.665 151.442 420.45 150.93C427.251 149.727 433.984 148.172 440.624 146.271C444.624 145.168 448.534 143.758 452.318 142.055C455.22 140.747 458.024 139.232 460.709 137.522C463.501 135.797 466.081 133.749 468.396 131.422L468.17 60.105Z" fill="black"/>
<path d="M282.175 43.68C281.894 53.693 281.894 53.693 281.614 63.702C250.025 63.556 251.228 62.104 219.639 61.959C220.034 52.044 219.981 43.593 220.374 33.693C251.85 33.741 250.699 43.631 282.174 43.68" fill="white"/>
<path d="M281.63 64.507C265.814 64.434 258.082 64.028 250.604 63.634C243.145 63.242 235.432 62.834 219.655 62.763C219.547 62.7622 219.44 62.7398 219.341 62.6969C219.242 62.6541 219.152 62.5917 219.077 62.5135C219.003 62.4354 218.945 62.343 218.906 62.2418C218.868 62.1407 218.851 62.033 218.855 61.925C219.052 57.058 219.133 52.467 219.217 48.027V47.791C219.304 43.3 219.39 38.658 219.588 33.661C219.595 33.453 219.682 33.2558 219.832 33.1113C219.982 32.9668 220.182 32.8863 220.39 32.887C236.258 32.912 244.027 35.458 251.541 37.921C258.931 40.344 266.572 42.85 282.193 42.874C282.3 42.8739 282.407 42.8955 282.506 42.9374C282.605 42.9794 282.694 43.0408 282.769 43.1181C282.843 43.1954 282.902 43.2869 282.94 43.3872C282.979 43.4875 282.997 43.5946 282.993 43.702L282.431 63.724C282.427 63.9334 282.34 64.1326 282.19 64.279C282.041 64.4254 281.839 64.5073 281.63 64.507ZM221.163 34.501C220.989 39.115 220.907 43.49 220.828 47.722V47.822C220.754 51.858 220.67 56.431 220.492 61.159C235.759 61.242 243.348 61.641 250.692 62.027C258.036 62.413 265.592 62.812 280.855 62.894L281.372 44.483C266.06 44.373 258.429 41.872 251.049 39.453H251.044C243.768 37.068 236.252 34.605 221.163 34.501Z" fill="black"/>
<path d="M267.16 50.0349C261.802 46.7059 257.97 50.3499 249.914 50.3859C241.858 50.4219 240.819 43.6919 235.985 41.2339C233.319 39.7924 230.301 39.1338 227.277 39.3339L226.909 56.6439L277.184 59.0289C274.28 55.5771 270.905 52.5496 267.16 50.0349Z" fill="#FFD2E1"/>
<path d="M232.549 57.05H232.517C232.304 57.0401 232.103 56.9462 231.959 56.7887C231.815 56.6312 231.74 56.4231 231.749 56.21L232.428 40.763C232.433 40.6579 232.458 40.5548 232.502 40.4595C232.547 40.3642 232.61 40.2787 232.687 40.2077C232.765 40.1367 232.856 40.0817 232.955 40.0458C233.053 40.0099 233.158 39.9938 233.264 39.9985C233.369 40.0031 233.472 40.0284 233.567 40.0729C233.662 40.1175 233.748 40.1803 233.819 40.2579C233.89 40.3355 233.945 40.4263 233.981 40.5251C234.017 40.624 234.033 40.7289 234.028 40.834L233.355 56.281C233.347 56.4879 233.26 56.6838 233.11 56.8274C232.961 56.971 232.762 57.0511 232.555 57.051" fill="black"/>
<path d="M250.099 58.551H250.067C249.854 58.5414 249.653 58.4475 249.509 58.29C249.365 58.1325 249.29 57.9242 249.299 57.711L249.979 42.264C249.997 42.0543 250.094 41.8592 250.249 41.7169C250.404 41.5746 250.607 41.4954 250.817 41.495C250.923 41.4994 251.026 41.5246 251.122 41.5693C251.218 41.6139 251.304 41.6772 251.375 41.7553C251.446 41.8334 251.501 41.9248 251.537 42.0243C251.573 42.1238 251.588 42.2294 251.583 42.335L250.899 57.781C250.891 57.9879 250.804 58.1838 250.654 58.3274C250.505 58.471 250.306 58.5511 250.099 58.551Z" fill="black"/>
<path d="M268.864 59.011H268.828C268.722 59.0064 268.618 58.9808 268.523 58.9358C268.427 58.8907 268.341 58.8271 268.27 58.7486C268.199 58.6701 268.144 58.5782 268.109 58.4784C268.073 58.3786 268.058 58.2727 268.064 58.167L268.653 45.953C268.67 45.7424 268.766 45.5461 268.923 45.4041C269.079 45.262 269.284 45.1847 269.495 45.188C269.601 45.1928 269.704 45.2185 269.8 45.2636C269.895 45.3087 269.981 45.3723 270.052 45.4507C270.123 45.529 270.177 45.6207 270.212 45.7203C270.248 45.8199 270.263 45.9255 270.257 46.031L269.664 58.245C269.655 58.4512 269.567 58.646 269.418 58.7888C269.269 58.9315 269.07 59.0112 268.864 59.011Z" fill="black"/>
<path d="M454.616 59.919C454.531 59.9187 454.446 59.9052 454.365 59.879C439.29 54.911 414.187 51.034 397.185 49.772C396.972 49.7564 396.773 49.6567 396.634 49.4948C396.494 49.333 396.424 49.1223 396.44 48.909C396.456 48.6958 396.555 48.4975 396.717 48.3578C396.879 48.2181 397.09 48.1484 397.303 48.164C414.403 49.433 439.668 53.338 454.867 58.346C455.049 58.4057 455.204 58.5282 455.304 58.6917C455.403 58.8553 455.442 59.049 455.411 59.2381C455.381 59.4273 455.284 59.5994 455.139 59.7237C454.993 59.8479 454.808 59.9161 454.616 59.916" fill="black"/>
<path d="M442.428 70.861C442.371 70.8609 442.315 70.8549 442.259 70.843C428.68 67.943 394.692 61.406 372.414 63.378C372.201 63.3968 371.99 63.3304 371.826 63.1933C371.662 63.0562 371.56 62.8597 371.541 62.647C371.522 62.4343 371.589 62.2228 371.726 62.0591C371.863 61.8953 372.059 61.7928 372.272 61.774C394.766 59.788 428.941 66.352 442.595 69.27C442.789 69.3117 442.961 69.4237 443.077 69.5845C443.194 69.7453 443.247 69.9435 443.226 70.1409C443.206 70.3384 443.113 70.5213 442.965 70.6544C442.818 70.7875 442.627 70.8614 442.428 70.862" fill="black"/>
<path d="M390.848 79.118C390.804 79.1193 390.76 79.1169 390.717 79.111C378.185 77.054 367.301 76.911 354.696 76.746L352.778 76.721C352.564 76.72 352.36 76.6343 352.21 76.4827C352.059 76.3311 351.976 76.126 351.976 75.9125C351.977 75.699 352.063 75.4946 352.215 75.3443C352.366 75.194 352.571 75.11 352.785 75.111H352.799L354.717 75.136C367.385 75.302 378.329 75.445 390.976 77.519C391.188 77.5359 391.385 77.6365 391.523 77.7985C391.661 77.9606 391.729 78.1708 391.712 78.383C391.695 78.5951 391.594 78.7919 391.432 78.9299C391.27 79.0679 391.06 79.1359 390.848 79.119" fill="black"/>
<path d="M387.74 93.438C387.702 93.4383 387.663 93.4356 387.625 93.43C386.125 93.216 384.659 93.003 383.215 92.791C373.118 91.313 364.397 90.037 351.341 89.891C351.127 89.8901 350.923 89.8044 350.773 89.6528C350.622 89.5011 350.539 89.296 350.539 89.0825C350.54 88.869 350.626 88.6646 350.778 88.5143C350.929 88.364 351.134 88.2801 351.348 88.281H351.358C362.112 88.4602 372.838 89.4349 383.448 91.197C384.891 91.408 386.355 91.622 387.853 91.836C388.065 91.8509 388.263 91.9494 388.402 92.1099C388.542 92.2705 388.612 92.4798 388.597 92.692C388.582 92.9042 388.484 93.1018 388.323 93.2413C388.163 93.3808 387.953 93.4509 387.741 93.436" fill="black"/>
<path d="M0 127.961L33.4 128.371L43.325 134.463L41.856 110.397L0.016 108.575L0 127.961Z" fill="#FFD2E1"/>
<path d="M34.843 116.56H34.82L6.911 115.798C6.69915 115.791 6.49855 115.701 6.35324 115.547C6.20794 115.392 6.12981 115.187 6.136 114.975C6.1433 114.764 6.23294 114.563 6.38579 114.417C6.53864 114.271 6.74256 114.191 6.954 114.193L34.865 114.954C34.9705 114.955 35.0746 114.978 35.1715 115.019C35.2683 115.061 35.356 115.121 35.4296 115.197C35.5031 115.272 35.5611 115.362 35.6001 115.46C35.6391 115.558 35.6584 115.662 35.657 115.768C35.6556 115.873 35.6334 115.978 35.5917 116.074C35.55 116.171 35.4896 116.259 35.414 116.333C35.3384 116.406 35.2491 116.464 35.1511 116.503C35.0532 116.542 34.9485 116.561 34.843 116.56Z" fill="black"/>
<path d="M6.419 120.225L34.329 120.986L6.419 120.225Z" fill="white"/>
<path d="M34.329 121.788H34.306L6.398 121.028C6.29284 121.025 6.18933 121.001 6.09338 120.958C5.99744 120.915 5.91095 120.853 5.83887 120.776C5.76679 120.7 5.71053 120.61 5.67332 120.511C5.63611 120.413 5.61867 120.308 5.622 120.203C5.62313 120.097 5.64537 119.993 5.68741 119.897C5.72944 119.8 5.79043 119.712 5.86676 119.64C5.94309 119.567 6.03323 119.51 6.13185 119.473C6.23048 119.435 6.33559 119.418 6.441 119.422L34.351 120.182C34.4565 120.183 34.5606 120.206 34.6575 120.247C34.7543 120.289 34.842 120.349 34.9156 120.425C34.9891 120.5 35.0471 120.59 35.0861 120.688C35.1251 120.786 35.1444 120.89 35.143 120.996C35.1416 121.101 35.1194 121.206 35.0777 121.302C35.036 121.399 34.9756 121.487 34.9 121.561C34.8244 121.634 34.7351 121.692 34.6371 121.731C34.5392 121.77 34.4345 121.789 34.329 121.788Z" fill="black"/>
<path d="M442.566 88.4659C444.231 81.7979 450.061 77.5259 455.584 78.9059C461.107 80.2859 464.239 86.8329 462.575 93.4889C460.911 100.145 455.08 104.428 449.556 103.047C444.032 101.666 440.901 95.1219 442.566 88.4659Z" fill="#FFBE00"/>
<path d="M451.811 101.14C451.229 101.14 450.649 101.068 450.084 100.925C445.583 99.789 443.037 94.406 444.408 88.923C445.001 86.3919 446.44 84.1387 448.486 82.535C449.866 81.4471 451.565 80.8422 453.322 80.813C453.907 80.8131 454.49 80.8857 455.057 81.029C456.023 81.2866 456.929 81.7332 457.721 82.3431C458.514 82.953 459.178 83.7139 459.674 84.582C461.119 87.1508 461.499 90.1841 460.732 93.03C460.137 95.559 458.699 97.8101 456.654 99.413C455.272 100.503 453.571 101.11 451.811 101.14ZM445.964 89.313C444.807 93.935 446.831 98.443 450.475 99.361C450.91 99.4712 451.357 99.527 451.806 99.527C453.218 99.4975 454.582 99.0057 455.688 98.127C457.44 96.7462 458.67 94.8105 459.176 92.638C459.839 90.2075 459.524 87.614 458.298 85.413C457.913 84.7233 457.393 84.1181 456.77 83.6334C456.146 83.1488 455.431 82.7946 454.668 82.592C454.233 82.4826 453.786 82.4268 453.337 82.426C451.925 82.4556 450.562 82.9474 449.456 83.826C447.702 85.2041 446.47 87.1399 445.966 89.313H445.964Z" fill="black"/>
<path d="M423.626 137.574C420.05 132.819 420.033 127.119 423.587 124.844C427.141 122.569 432.916 124.578 436.492 129.334C440.068 134.09 440.084 139.79 436.531 142.077C432.978 144.364 427.202 142.343 423.631 137.577" fill="#FFBE00"/>
<path d="M432.498 141.498C429.76 141.498 426.76 139.768 424.671 136.982C423.841 135.964 423.222 134.789 422.853 133.528C422.484 132.267 422.37 130.945 422.52 129.639C422.623 128.948 422.872 128.286 423.249 127.697C423.625 127.109 424.122 126.606 424.707 126.223C425.58 125.679 426.592 125.399 427.62 125.417C430.361 125.417 433.362 127.145 435.45 129.927C436.279 130.946 436.896 132.121 437.264 133.382C437.632 134.644 437.745 135.966 437.595 137.271C437.492 137.962 437.245 138.623 436.868 139.212C436.492 139.8 435.996 140.303 435.412 140.686C434.54 141.234 433.528 141.516 432.498 141.498ZM427.57 127.044C426.866 127.027 426.171 127.213 425.57 127.581C425.174 127.846 424.839 128.192 424.586 128.596C424.333 129 424.169 129.452 424.103 129.924C423.991 131.011 424.097 132.11 424.414 133.156C424.732 134.202 425.254 135.175 425.951 136.017C426.807 137.162 427.884 138.124 429.12 138.843C430.154 139.476 431.335 139.83 432.547 139.87C433.252 139.887 433.947 139.699 434.547 139.329C434.943 139.064 435.279 138.718 435.532 138.314C435.785 137.91 435.95 137.457 436.016 136.985C436.127 135.898 436.021 134.8 435.703 133.754C435.386 132.708 434.864 131.736 434.168 130.894C433.313 129.749 432.235 128.789 431 128.07C429.964 127.438 428.783 127.084 427.57 127.044Z" fill="black"/>
<path d="M282.937 11.5C280.575 8.353 280.563 4.578 282.91 3.077C285.257 1.576 289.072 2.908 291.433 6.042C293.794 9.176 293.807 12.952 291.461 14.465C289.115 15.978 285.298 14.634 282.938 11.5" fill="#FFBE00"/>
<path d="M288.802 14.353C287.73 14.2769 286.688 13.9604 285.755 13.4268C284.821 12.8933 284.02 12.1565 283.41 11.271C282.84 10.5667 282.417 9.75572 282.165 8.88559C281.913 8.01546 281.838 7.10377 281.943 6.20405C282.017 5.71075 282.195 5.23867 282.464 4.8187C282.733 4.39874 283.088 4.04036 283.505 3.76705C284.122 3.37722 284.84 3.17631 285.57 3.18905C286.642 3.26553 287.683 3.58226 288.617 4.11576C289.55 4.64927 290.351 5.38588 290.961 6.27105C291.531 6.97507 291.954 7.78585 292.207 8.65581C292.459 9.52576 292.535 10.4373 292.43 11.337C292.356 11.8301 292.178 12.302 291.909 12.722C291.641 13.1421 291.287 13.5009 290.87 13.775C290.252 14.1648 289.533 14.3657 288.802 14.353ZM285.56 4.80105C285.141 4.79026 284.727 4.9018 284.37 5.12205C284.141 5.27859 283.948 5.48093 283.801 5.71626C283.655 5.95158 283.559 6.21474 283.52 6.48905C283.454 7.17037 283.523 7.85807 283.724 8.5125C283.925 9.16692 284.253 9.77513 284.69 10.302C285.23 11.0229 285.906 11.6302 286.681 12.089C287.322 12.4886 288.056 12.7134 288.811 12.741C289.231 12.7516 289.645 12.6397 290.002 12.419C290.23 12.2619 290.423 12.0592 290.57 11.8238C290.716 11.5884 290.811 11.3253 290.851 11.051C290.917 10.3698 290.848 9.68221 290.647 9.02794C290.446 8.37367 290.117 7.76568 289.68 7.23905C289.141 6.51845 288.464 5.91149 287.69 5.45305C287.049 5.05359 286.315 4.82881 285.56 4.80105Z" fill="black"/>
<path d="M344.949 85.465C341.067 88.365 336.307 88.503 334.32 85.743C332.333 82.983 333.866 78.397 337.749 75.493C341.632 72.589 346.392 72.455 348.379 75.214C350.366 77.973 348.831 82.56 344.948 85.464" fill="#FFBE00"/>
<path d="M339.202 86.724C338.899 86.7248 338.596 86.7021 338.296 86.656C337.716 86.5865 337.157 86.4 336.651 86.1078C336.146 85.8155 335.705 85.4237 335.356 84.956C333.609 82.536 334.862 78.669 338.21 76.157C339.727 74.9752 341.578 74.3028 343.5 74.236C343.801 74.2353 344.102 74.2571 344.4 74.301C344.98 74.3707 345.54 74.5573 346.045 74.8495C346.551 75.1417 346.992 75.5334 347.342 76.001C349.09 78.423 347.835 82.289 344.486 84.801C342.971 85.9831 341.122 86.6562 339.202 86.724ZM343.478 75.843C341.909 75.9112 340.401 76.4717 339.169 77.445C336.62 79.361 335.469 82.368 336.655 84.013C336.883 84.3044 337.167 84.5476 337.49 84.7283C337.813 84.9091 338.168 85.0239 338.536 85.066C338.76 85.0991 338.987 85.1154 339.214 85.115C340.783 85.0473 342.291 84.4875 343.524 83.515C346.076 81.6 347.224 78.592 346.04 76.947C345.812 76.6553 345.528 76.412 345.205 76.231C344.882 76.0501 344.526 75.9352 344.158 75.893C343.933 75.8597 343.706 75.843 343.478 75.843Z" fill="black"/>
<path d="M358.764 8.192C361.436 10.9706 363.525 14.2564 364.906 17.8555C366.288 21.4546 366.934 25.294 366.807 29.147C366.627 36.7513 363.455 43.9778 357.979 49.257C355.441 51.7143 352.437 53.6407 349.145 54.9233C345.854 56.206 342.339 56.8192 338.807 56.727C334.713 56.6106 330.703 55.538 327.097 53.595C323.674 51.754 354.035 3.313 358.764 8.192Z" fill="#FFD2E1"/>
<path d="M340.395 0.0069911C336.68 -0.0795017 332.988 0.610303 329.556 2.03228C326.123 3.45425 323.024 5.57709 320.459 8.26499C317.017 11.824 327.47 20.336 333.68 24.912C333.738 24.96 333.824 24.9 333.868 24.96C333.995 25.142 334.312 25.347 334.49 25.541C334.514 25.565 334.541 25.602 334.563 25.626C336.579 27.091 337.955 28.026 337.955 28.026C337.955 28.026 337.742 27.953 337.731 27.953C338.131 28.195 338.368 28.389 338.839 28.653C338.909 28.701 339.383 28.944 339.728 29.137L358.78 8.17999C358.78 8.17999 353.337 0.321991 340.395 0.0069911Z" fill="#FF0E11"/>
<path d="M320.568 24.391C316.08 24.088 312.474 24.754 312.392 27.599C312.182 34.246 314.269 40.7624 318.301 46.051C320.673 49.1619 323.676 51.7365 327.112 53.606L339.736 28.806C339.736 28.806 335.125 27.757 334.18 26.933C329.729 25.6747 325.173 24.8238 320.568 24.391Z" fill="#FFBE00"/>
<path d="M312.406 27.6C312.708 24.8126 313.254 22.057 314.038 19.365C315.318 15.2321 317.509 11.439 320.45 8.26501L339.836 29.223L312.406 27.6Z" fill="#E61515"/>
<path d="M341.003 173.769C335.749 167.581 336.951 158.393 341.047 149.754C341.782 148.204 345.802 147.654 345.802 147.654C345.802 147.654 344.854 143.028 345.575 141.998C347.374 139.409 349.385 136.975 351.587 134.719C353.254 133.011 357.743 133.435 357.743 133.435C357.743 133.435 360.212 127.9 361.879 127.235C365.337 125.854 368.355 126.072 370.239 128.555C378.253 139.128 355.939 153.564 351.756 160.297C349.013 164.722 344.919 178.383 341.003 173.769Z" fill="#E61515"/>
<path d="M335.143 181.896C329.556 185.711 316.294 148.567 322.404 141.604C323.36 140.526 325.683 141.655 326.538 142.255C328.005 143.297 329.493 145.561 330.874 148.528C331.314 149.473 330.63 153.428 330.63 153.428C330.63 153.428 333.268 154.591 333.766 156.228C337.007 166.789 338.51 179.59 335.142 181.891" fill="#E61515"/>
<path d="M344.652 192.251C333.177 186.131 367.379 147.731 379.325 150.36C395.806 153.993 347.798 193.931 344.652 192.251Z" fill="#E61515"/>
<path d="M340.076 199.317C339.97 199.317 339.866 199.296 339.768 199.255C339.67 199.215 339.582 199.155 339.507 199.08C339.433 199.005 339.374 198.916 339.335 198.818C339.295 198.72 339.275 198.615 339.276 198.509C339.383 165.369 350.876 147.018 360.495 137.458C360.647 137.308 360.852 137.225 361.065 137.227C361.279 137.229 361.482 137.315 361.632 137.467C361.782 137.619 361.865 137.824 361.863 138.037C361.861 138.251 361.775 138.454 361.623 138.604C352.218 147.948 340.986 165.926 340.876 198.514C340.876 198.726 340.792 198.93 340.642 199.08C340.492 199.23 340.288 199.314 340.076 199.314" fill="black"/>
<path d="M339.501 199.401C339.307 199.401 339.12 199.33 338.975 199.203C338.829 199.075 338.735 198.899 338.709 198.707C336.601 183.55 332.212 168.209 324.471 148.965C324.431 148.867 324.411 148.763 324.412 148.658C324.412 148.552 324.434 148.448 324.474 148.351C324.515 148.254 324.575 148.166 324.65 148.092C324.725 148.017 324.813 147.959 324.911 147.919C325.009 147.879 325.113 147.859 325.218 147.86C325.324 147.86 325.428 147.882 325.525 147.922C325.622 147.963 325.71 148.023 325.784 148.098C325.859 148.173 325.917 148.261 325.957 148.359C333.748 167.733 338.171 183.191 340.296 198.485C340.312 198.59 340.306 198.696 340.28 198.799C340.254 198.902 340.208 198.998 340.144 199.083C340.081 199.167 340.001 199.238 339.91 199.292C339.819 199.346 339.718 199.381 339.613 199.395C339.576 199.4 339.538 199.402 339.501 199.402" fill="black"/>
<path d="M340.243 198.409C340.194 198.409 340.144 198.405 340.096 198.396C339.886 198.356 339.701 198.235 339.58 198.059C339.46 197.883 339.414 197.667 339.453 197.457C342.022 183.527 352.853 174.757 363.319 166.279C366.019 164.091 368.573 162.023 370.987 159.87C371.146 159.729 371.355 159.657 371.567 159.669C371.672 159.675 371.775 159.702 371.87 159.748C371.965 159.794 372.05 159.859 372.119 159.938C372.189 160.016 372.243 160.108 372.278 160.208C372.312 160.307 372.327 160.413 372.32 160.518C372.314 160.623 372.287 160.726 372.241 160.821C372.195 160.915 372.131 161 372.052 161.07C369.614 163.253 367.043 165.332 364.33 167.533C354.086 175.833 343.494 184.407 341.03 197.75C340.997 197.935 340.9 198.102 340.756 198.223C340.612 198.343 340.43 198.409 340.242 198.409" fill="black"/>
<path d="M331.798 194.2L344.467 193.376C345.788 193.294 347.087 193.74 348.08 194.615C349.073 195.49 349.679 196.722 349.765 198.043C349.85 199.364 349.409 200.664 348.537 201.66C347.665 202.656 346.434 203.265 345.114 203.355L332.444 204.179C331.124 204.258 329.827 203.812 328.836 202.937C327.845 202.062 327.24 200.83 327.155 199.511C327.07 198.192 327.51 196.892 328.38 195.897C329.25 194.902 330.479 194.292 331.798 194.2Z" fill="black"/>
<path d="M348.115 157.984C347.93 157.984 347.75 157.919 347.607 157.801C347.464 157.684 347.367 157.52 347.331 157.338C346.46 153.044 347.166 146.98 348.19 143.166C348.216 143.064 348.263 142.968 348.327 142.883C348.391 142.799 348.471 142.728 348.562 142.675C348.654 142.622 348.755 142.587 348.859 142.573C348.964 142.559 349.071 142.566 349.173 142.594C349.379 142.65 349.554 142.786 349.66 142.971C349.766 143.156 349.795 143.375 349.74 143.581C348.732 147.337 348.121 153.158 348.902 157.018C348.924 157.121 348.925 157.228 348.905 157.332C348.885 157.436 348.845 157.535 348.787 157.623C348.729 157.711 348.654 157.787 348.567 157.846C348.479 157.905 348.381 157.946 348.277 157.967C348.224 157.978 348.169 157.983 348.115 157.983" fill="black"/>
<path d="M331.791 171.336C330.191 171.336 326.637 169.405 325.572 167.645C325.517 167.555 325.48 167.455 325.464 167.351C325.448 167.247 325.452 167.141 325.477 167.038C325.501 166.936 325.546 166.839 325.608 166.754C325.67 166.669 325.749 166.596 325.838 166.542C325.928 166.487 326.028 166.45 326.132 166.433C326.237 166.417 326.343 166.421 326.445 166.446C326.548 166.471 326.645 166.516 326.73 166.578C326.815 166.64 326.887 166.718 326.942 166.808C327.897 167.949 329.128 168.827 330.518 169.359C330.418 169.268 330.318 169.171 330.2 169.066C329.064 168.061 326.97 166.074 325.718 164.889L324.818 164.04C324.662 163.895 324.569 163.694 324.561 163.48C324.553 163.267 324.63 163.059 324.775 162.903C324.92 162.747 325.121 162.654 325.335 162.646C325.548 162.638 325.756 162.715 325.912 162.86L326.818 163.716C328.064 164.897 330.15 166.871 331.264 167.861C332.686 169.131 333.157 169.895 332.942 170.586C332.875 170.789 332.749 170.968 332.58 171.1C332.411 171.231 332.207 171.31 331.993 171.325C331.927 171.333 331.86 171.337 331.793 171.337" fill="black"/>
</svg>
